<mxfile host="app.diagrams.net" agent="Mozilla/5.0 (Windows NT 10.0; Win64; x64) AppleWebKit/537.36 (KHTML, like Gecko) Chrome/128.0.0.0 Safari/537.36 OPR/114.0.0.0" version="24.8.4">
  <diagram name="Page-1" id="-5a_yTGB8BfFHetPTBox">
    <mxGraphModel dx="2467" dy="1403" grid="0" gridSize="10" guides="1" tooltips="1" connect="1" arrows="1" fold="1" page="1" pageScale="1" pageWidth="1654" pageHeight="1169" background="#000000" math="0" shadow="0">
      <root>
        <mxCell id="0" />
        <mxCell id="1" parent="0" />
        <mxCell id="wZONlhchvYYe9J__WkY0-4" value="" style="shape=delay;whiteSpace=wrap;html=1;rotation=90;" parent="1" vertex="1">
          <mxGeometry x="108" y="71" width="433.07" height="433.07" as="geometry" />
        </mxCell>
        <mxCell id="wZONlhchvYYe9J__WkY0-22" value="" style="rounded=0;whiteSpace=wrap;html=1;fillColor=#00FF00;" parent="1" vertex="1">
          <mxGeometry x="1169" y="676" width="433.07" height="433.07" as="geometry" />
        </mxCell>
        <mxCell id="PgtVWtilIE-5q3GnIlGc-1" value="" style="rounded=0;whiteSpace=wrap;html=1;rotation=-45;fillColor=#ff0000;" vertex="1" parent="1">
          <mxGeometry x="756" y="413" width="385" height="60" as="geometry" />
        </mxCell>
        <mxCell id="PgtVWtilIE-5q3GnIlGc-2" value="" style="ellipse;whiteSpace=wrap;html=1;aspect=fixed;fillColor=#ff0000;strokeColor=#ff0000;" vertex="1" parent="1">
          <mxGeometry x="17" y="1068" width="80" height="80" as="geometry" />
        </mxCell>
        <mxCell id="PgtVWtilIE-5q3GnIlGc-4" value="" style="ellipse;whiteSpace=wrap;html=1;aspect=fixed;fillColor=#ff0000;strokeColor=#ff0000;" vertex="1" parent="1">
          <mxGeometry x="1551" y="22" width="80" height="80" as="geometry" />
        </mxCell>
      </root>
    </mxGraphModel>
  </diagram>
</mxfile>
